<svg id="Layer_1" data-name="Layer 1" xmlns="http://www.w3.org/2000/svg" xmlns:xlink="http://www.w3.org/1999/xlink" viewBox="0 0 365.62 511"><defs><style>.cls-1{fill:none;}.cls-2{clip-path:url(#clip-path);}.cls-3{fill:#fff;}</style><clipPath id="clip-path" transform="translate(-122.86 -140)"><rect class="cls-1" x="122" y="141" width="367" height="511"/></clipPath></defs><g class="cls-2"><path class="cls-3" d="M305.67,397a57.64,57.64,0,0,0-38.76,100.32v38.77a38.76,38.76,0,0,0,77.52,0V497.31A57.65,57.65,0,0,0,305.67,397Zm14.7,79.89-6.92,4.6v54.6a7.78,7.78,0,1,1-15.56,0v-54.6l-6.93-4.6a26.68,26.68,0,1,1,29.41,0Zm0,0" transform="translate(-122.86 -140)"/><path class="cls-3" d="M443.16,326.18v-56.4c0-71.56-58.23-129.78-129.79-129.78H298A129.93,129.93,0,0,0,168.18,269.78v56.4a72.76,72.76,0,0,0-45.32,67.31V578.34A72.74,72.74,0,0,0,195.52,651H415.81a72.74,72.74,0,0,0,72.66-72.66V393.49a72.77,72.77,0,0,0-45.31-67.31Zm-244-56.4A98.91,98.91,0,0,1,298,171h15.41a98.91,98.91,0,0,1,98.81,98.8v51.05h-33V269.78A65.91,65.91,0,0,0,313.37,204H298a65.91,65.91,0,0,0-65.84,65.83v51.05h-33Zm149.07,51.05H263.1V269.78A34.9,34.9,0,0,1,298,234.93h15.41a34.9,34.9,0,0,1,34.86,34.85ZM457.49,578.34A41.73,41.73,0,0,1,415.81,620H195.52a41.73,41.73,0,0,1-41.68-41.68V393.49a41.73,41.73,0,0,1,41.68-41.68H415.81a41.73,41.73,0,0,1,41.68,41.68Zm0,0" transform="translate(-122.86 -140)"/></g></svg>